<svg width="290" height="306" viewBox="0 0 290 306" fill="none" xmlns="http://www.w3.org/2000/svg">
<mask id="path-1-inside-1_2297_13434" fill="white">
<path fill-rule="evenodd" clip-rule="evenodd" d="M246.238 16L237 0L227.762 16H0V306H290V16H246.238Z"/>
</mask>
<path fill-rule="evenodd" clip-rule="evenodd" d="M246.238 16L237 0L227.762 16H0V306H290V16H246.238Z" fill="white"/>
<path d="M237 0L237.866 -0.5L237 -2L236.134 -0.5L237 0ZM246.238 16L245.372 16.5L245.66 17H246.238V16ZM227.762 16V17H228.34L228.628 16.5L227.762 16ZM0 16V15H-1V16H0ZM0 306H-1V307H0V306ZM290 306V307H291V306H290ZM290 16H291V15H290V16ZM236.134 0.5L245.372 16.5L247.104 15.5L237.866 -0.5L236.134 0.5ZM228.628 16.5L237.866 0.5L236.134 -0.5L226.896 15.5L228.628 16.5ZM0 17H227.762V15H0V17ZM1 306V16H-1V306H1ZM290 305H0V307H290V305ZM289 16V306H291V16H289ZM246.238 17H290V15H246.238V17Z" fill="#706F6F" mask="url(#path-1-inside-1_2297_13434)"/>
</svg>
