<svg width="290" height="306" viewBox="0 0 290 306" fill="none" xmlns="http://www.w3.org/2000/svg">
<mask id="path-1-inside-1_2297_13434" fill="white">
<path fill-rule="evenodd" clip-rule="evenodd" d="M161.238 16L152 0L142.762 16H0V306H290V16H161.238Z"/>
</mask>
<path fill-rule="evenodd" clip-rule="evenodd" d="M161.238 16L152 0L142.762 16H0V306H290V16H161.238Z" fill="white"/>
<path d="M152 0L152.866 -0.5L152 -2L151.134 -0.5L152 0ZM161.238 16L160.372 16.5L160.66 17H161.238V16ZM142.762 16V17H143.34L143.628 16.5L142.762 16ZM0 16V15H-1V16H0ZM0 306H-1V307H0V306ZM290 306V307H291V306H290ZM290 16H291V15H290V16ZM151.134 0.5L160.372 16.5L162.104 15.5L152.866 -0.5L151.134 0.5ZM143.628 16.5L152.866 0.5L151.134 -0.5L141.896 15.5L143.628 16.5ZM0 17H142.762V15H0V17ZM1 306V16H-1V306H1ZM290 305H0V307H290V305ZM289 16V306H291V16H289ZM161.238 17H290V15H161.238V17Z" fill="#706F6F" mask="url(#path-1-inside-1_2297_13434)"/>
</svg>
