<svg width="24" height="29" viewBox="0 0 24 29" fill="none" xmlns="http://www.w3.org/2000/svg">
<path fill-rule="evenodd" clip-rule="evenodd" d="M3.27273 10.7991C2.9834 10.7991 2.70592 10.9141 2.50134 11.1187C2.29675 11.3232 2.18182 11.6007 2.18182 11.89V24.981C2.18182 25.2703 2.29675 25.5478 2.50134 25.7523C2.70592 25.9569 2.9834 26.0719 3.27273 26.0719H20.7273C21.0166 26.0719 21.2941 25.9569 21.4987 25.7523C21.7032 25.5478 21.8182 25.2703 21.8182 24.981V11.89C21.8182 11.6007 21.7032 11.3232 21.4987 11.1187C21.2941 10.9141 21.0166 10.7991 20.7273 10.7991H18C17.7107 10.7991 17.4332 10.6842 17.2286 10.4796C17.024 10.275 16.9091 9.99755 16.9091 9.70823C16.9091 9.4189 17.024 9.14142 17.2286 8.93684C17.4332 8.73225 17.7107 8.61732 18 8.61732H20.7273C21.5953 8.61732 22.4277 8.96212 23.0414 9.57588C23.6552 10.1896 24 11.0221 24 11.89V24.981C24 25.8489 23.6552 26.6814 23.0414 27.2951C22.4277 27.9089 21.5953 28.2537 20.7273 28.2537H3.27273C2.40475 28.2537 1.57232 27.9089 0.95856 27.2951C0.344804 26.6814 0 25.8489 0 24.981V11.89C0 11.0221 0.344804 10.1896 0.95856 9.57588C1.57232 8.96212 2.40475 8.61732 3.27273 8.61732H6C6.28933 8.61732 6.5668 8.73225 6.77139 8.93684C6.97597 9.14142 7.09091 9.4189 7.09091 9.70823C7.09091 9.99755 6.97597 10.275 6.77139 10.4796C6.5668 10.6842 6.28933 10.7991 6 10.7991H3.27273ZM10.9091 3.4595L7.78473 6.58386C7.59861 6.75729 7.35244 6.85171 7.09808 6.84722C6.84372 6.84273 6.60104 6.73969 6.42115 6.5598C6.24126 6.37992 6.13822 6.13723 6.13373 5.88287C6.12925 5.62852 6.22366 5.38235 6.39709 5.19623L11.3062 0.287136C11.4903 0.103274 11.7398 0 12 0C12.2602 0 12.5097 0.103274 12.6938 0.287136L17.6029 5.19623C17.7763 5.38235 17.8708 5.62852 17.8663 5.88287C17.8618 6.13723 17.7587 6.37992 17.5789 6.5598C17.399 6.73969 17.1563 6.84273 16.9019 6.84722C16.6476 6.85171 16.4014 6.75729 16.2153 6.58386L13.0909 3.4595V18.4355C13.0909 18.7248 12.976 19.0023 12.7714 19.2069C12.5668 19.4115 12.2893 19.5264 12 19.5264C11.7107 19.5264 11.4332 19.4115 11.2286 19.2069C11.024 19.0023 10.9091 18.7248 10.9091 18.4355V3.4595Z" fill="#231F20"/>
</svg>
