<svg width="24" height="24" viewBox="0 0 24 24" fill="none" xmlns="http://www.w3.org/2000/svg">
<path d="M12.9809 18.9761C13.112 19.1067 13.216 19.262 13.287 19.4329C13.3579 19.6038 13.3945 19.7871 13.3945 19.9722C13.3945 20.1572 13.3579 20.3405 13.287 20.5114C13.216 20.6824 13.112 20.8376 12.9809 20.9683L12.2848 21.6643C10.9657 22.9834 9.17673 23.7244 7.31133 23.7244C5.44593 23.7244 3.65693 22.9834 2.3379 21.6643C1.01886 20.3453 0.277832 18.5563 0.277832 16.6909C0.277832 14.8255 1.01886 13.0365 2.3379 11.7175L5.16446 8.89209C6.43182 7.62159 8.13701 6.88376 9.93074 6.82972C11.7245 6.77569 13.471 7.40955 14.8125 8.60146C14.951 8.72458 15.0639 8.87376 15.1448 9.04051C15.2256 9.20726 15.2728 9.38829 15.2837 9.57328C15.2946 9.75828 15.2689 9.9436 15.2082 10.1187C15.1474 10.2937 15.0528 10.4551 14.9297 10.5936C14.8066 10.7322 14.6574 10.845 14.4906 10.9259C14.3239 11.0067 14.1429 11.054 13.9579 11.0648C13.7729 11.0757 13.5876 11.0501 13.4125 10.9893C13.2374 10.9286 13.076 10.8339 12.9375 10.7108C12.133 9.99638 11.086 9.61628 10.0105 9.6483C8.93508 9.68032 7.9125 10.122 7.15196 10.8831L4.32774 13.705C3.53644 14.4963 3.0919 15.5695 3.0919 16.6886C3.0919 17.8076 3.53644 18.8809 4.32774 19.6722C5.11904 20.4635 6.19227 20.908 7.31133 20.908C8.4304 20.908 9.50363 20.4635 10.2949 19.6722L10.991 18.9761C11.1216 18.8453 11.2767 18.7416 11.4474 18.6708C11.6181 18.6001 11.8011 18.5636 11.9859 18.5636C12.1707 18.5636 12.3537 18.6001 12.5245 18.6708C12.6952 18.7416 12.8503 18.8453 12.9809 18.9761ZM21.6621 2.33544C20.342 1.01844 18.5534 0.278809 16.6887 0.278809C14.8239 0.278809 13.0354 1.01844 11.7152 2.33544L11.0191 3.03154C10.755 3.29572 10.6066 3.65403 10.6066 4.02763C10.6066 4.40124 10.755 4.75955 11.0191 5.02373C11.2833 5.28791 11.6416 5.43632 12.0152 5.43632C12.3888 5.43632 12.7472 5.28791 13.0113 5.02373L13.7074 4.32763C14.4987 3.53633 15.572 3.09179 16.691 3.09179C17.8101 3.09179 18.8833 3.53633 19.6746 4.32763C20.4659 5.11893 20.9105 6.19216 20.9105 7.31123C20.9105 8.43029 20.4659 9.50352 19.6746 10.2948L16.8492 13.1214C16.088 13.8821 15.0649 14.3232 13.9891 14.3544C12.9134 14.3855 11.8665 14.0044 11.0625 13.289C10.924 13.1658 10.7626 13.0712 10.5875 13.0105C10.4125 12.9497 10.2271 12.9241 10.0421 12.935C9.85715 12.9458 9.67611 12.9931 9.50937 13.0739C9.34262 13.1547 9.19343 13.2676 9.07032 13.4061C8.9472 13.5447 8.85258 13.706 8.79184 13.8811C8.7311 14.0562 8.70543 14.2415 8.71632 14.4265C8.7272 14.6115 8.77441 14.7925 8.85526 14.9593C8.9361 15.126 9.049 15.2752 9.18751 15.3983C10.5281 16.59 12.2734 17.2242 14.0663 17.1713C15.8592 17.1184 17.5641 16.3822 18.832 15.1136L21.6586 12.2882C22.9771 10.9684 23.7181 9.1793 23.7187 7.31371C23.7194 5.44812 22.9797 3.65851 21.6621 2.33779V2.33544Z" fill="#231F20"/>
</svg>
