<svg width="190" height="78" viewBox="0 0 190 78" fill="none" xmlns="http://www.w3.org/2000/svg">
<g clip-path="url(#clip0_1083_4970)">
<path d="M95.4262 33.4352L78.9906 16.9996L95.4169 0.563965L111.853 16.9996L95.4262 33.4352ZM80.51 16.9996L95.4262 31.9157L110.342 16.9996L95.4262 2.08338L80.51 16.9996Z" fill="#231F20"/>
<path d="M103.82 15.4617L104.626 14.2851C102.856 13.0714 98.9375 12.2375 95.1204 12.2375C95.1019 12.2375 95.0834 12.2375 95.0741 12.2375V13.6643C95.0926 13.6643 95.1019 13.6643 95.1204 13.6643C98.6225 13.6551 102.282 14.4148 103.82 15.4617Z" fill="#231F20"/>
<path d="M94.4256 15.2208V9.59708C95.454 9.83796 96.26 10.681 96.5009 11.7465C96.9919 11.7743 97.483 11.8113 97.974 11.8577C97.7146 9.74531 95.9543 8.09619 93.8327 8.09619H93.0081V16.7031H93.8327C95.4818 16.7031 96.9086 15.7118 97.5849 14.285C97.0568 14.2294 96.5287 14.2016 96.0006 14.1831C95.593 14.7019 95.0464 15.0818 94.4256 15.2208Z" fill="#231F20"/>
<path d="M93.8512 15.1837H92.9988V19.4825C93.4435 19.5289 93.9253 19.5567 94.4256 19.5752V16.6661C96.1581 16.9811 97.5756 18.6765 97.5756 20.5943C97.5756 22.3731 96.2508 23.7536 94.4256 23.9945V22.0396C93.9346 22.0303 93.4621 22.0025 92.9988 21.9562V25.4583H93.8512C96.7881 25.4583 98.9931 23.3645 98.9931 20.5943C99.0024 17.6574 96.6399 15.1837 93.8512 15.1837Z" fill="#231F20"/>
<path d="M95.1204 20.1033C89.9415 20.1033 86.8563 18.4634 86.8563 16.8792C86.8563 15.6099 88.8482 14.3036 92.3132 13.8403V12.4043C88.1534 12.9231 85.4296 14.6186 85.4296 16.8792C85.4296 19.6122 89.4134 21.53 95.1112 21.53C95.7041 21.53 96.3063 21.5115 96.89 21.4652C96.9827 21.1872 97.0475 20.9 97.0475 20.585C97.0475 20.3997 97.0197 20.2144 96.9919 20.0292C96.3805 20.0755 95.7504 20.1033 95.1204 20.1033ZM104.654 19.4547L103.848 18.2874C102.958 18.8989 101.337 19.4177 99.4471 19.7419C99.4841 20.0199 99.5212 20.3071 99.5212 20.5943C99.5212 20.7889 99.5119 20.9834 99.4841 21.178C101.68 20.8074 103.57 20.2052 104.654 19.4547Z" fill="#231F20"/>
<path d="M50.4831 49.2964H57.6262V49.5558L55.6991 50.5842V54.8089L60.8318 50.4174L58.914 49.5558V49.2964H64.0929V49.5558L61.61 50.5934L59.1919 52.6965L64.0281 59.0521L66.159 60.1083V60.3399H58.5897V60.1083L59.8775 59.0521L56.6627 54.8645L55.6991 55.7076V59.0521L57.6262 60.1083V60.3399H50.4831V60.1083L52.3916 59.0521V50.5934L50.4831 49.5558V49.2964Z" fill="#231F20"/>
<path d="M42.2838 43.5522C43.3956 43.5522 44.424 43.8395 45.369 44.4231C46.314 45.0161 47.1015 45.8684 47.75 46.9895C48.1762 47.7028 48.5005 48.4903 48.7228 49.352C48.9544 50.2043 49.0656 51.0752 49.0749 51.9646C49.0749 53.5118 48.7784 54.9293 48.1855 56.2356C47.5925 57.542 46.7772 58.5796 45.7489 59.3393C44.7205 60.1083 43.618 60.4881 42.4228 60.4974C41.2462 60.4974 40.153 60.1268 39.1339 59.3578C38.1055 58.5981 37.2994 57.5697 36.6972 56.282C36.0858 54.9942 35.7893 53.6045 35.78 52.1221C35.78 51.0103 35.9468 49.9356 36.2989 48.898C36.6416 47.8603 37.1234 46.9339 37.7256 46.1278C38.3371 45.3218 39.0412 44.6918 39.8194 44.2378C40.6069 43.7839 41.4315 43.5522 42.2838 43.5522ZM42.5155 44.0803C41.8299 44.0803 41.274 44.2471 40.8571 44.5621C40.4402 44.8864 40.1159 45.3867 39.8658 46.0815C39.699 46.6003 39.5786 47.1747 39.4952 47.814C39.4303 48.3421 39.384 49.0555 39.3469 49.9542C39.3099 50.8528 39.2914 51.7978 39.2914 52.7892C39.2914 53.3265 39.3099 53.938 39.3377 54.6328C39.3747 55.3184 39.4118 55.8928 39.4674 56.3468C39.6156 57.4771 39.9028 58.3295 40.329 58.9131C40.8015 59.6358 41.5334 59.9878 42.5155 59.9878C43.1269 59.9878 43.6458 59.8211 44.0534 59.4783C44.4703 59.1448 44.7946 58.6259 45.0355 57.9403C45.193 57.5142 45.3134 56.9583 45.4061 56.2634C45.4616 55.7909 45.508 55.1239 45.545 54.253C45.5821 53.3821 45.5913 52.4649 45.5913 51.4921C45.5913 49.6484 45.4894 48.1939 45.2856 47.1099C45.0911 46.0259 44.7668 45.257 44.3221 44.7752C43.8774 44.312 43.2752 44.0803 42.5155 44.0803Z" fill="#231F20"/>
<path d="M147.216 43.0056C148.374 43.0056 149.43 43.3114 150.412 43.9321C151.385 44.5528 152.21 45.4422 152.867 46.6189C153.303 47.3693 153.636 48.1939 153.868 49.0925C154.109 49.9819 154.22 50.8991 154.22 51.8164C154.22 53.4284 153.905 54.9108 153.275 56.2727C152.654 57.6346 151.811 58.7093 150.746 59.5061C149.69 60.3028 148.531 60.7012 147.299 60.7012C146.086 60.7012 144.946 60.3028 143.89 59.5061C142.834 58.7093 141.991 57.6346 141.37 56.2819C140.749 54.9386 140.434 53.4933 140.443 51.9461C140.453 50.788 140.629 49.6669 140.99 48.583C141.351 47.499 141.852 46.5355 142.491 45.7016C143.13 44.8586 143.853 44.2008 144.668 43.7283C145.483 43.2465 146.336 43.0056 147.216 43.0056ZM147.447 43.5615C146.734 43.5615 146.16 43.7283 145.724 44.0618C145.289 44.3953 144.946 44.9234 144.696 45.6461C144.52 46.1834 144.39 46.7856 144.307 47.4527C144.242 47.9993 144.186 48.7497 144.149 49.6855C144.112 50.6212 144.084 51.6033 144.084 52.6409C144.084 53.2061 144.103 53.8453 144.131 54.5587C144.159 55.2721 144.205 55.865 144.26 56.3468C144.418 57.5234 144.705 58.4221 145.141 59.0336C145.632 59.784 146.391 60.1639 147.401 60.1639C148.04 60.1639 148.569 59.9878 149.004 59.6358C149.43 59.2837 149.773 58.7556 150.032 58.033C150.19 57.5975 150.32 57.0046 150.421 56.2819C150.486 55.7909 150.533 55.0961 150.57 54.1881C150.607 53.2802 150.625 52.3167 150.635 51.3068C150.635 49.389 150.533 47.8696 150.338 46.7393C150.134 45.609 149.801 44.803 149.347 44.3027C148.874 43.8116 148.244 43.5615 147.447 43.5615Z" fill="#231F20"/>
<path d="M1.41718 38.3455H10.9969C11.9048 38.3455 12.7572 38.4844 13.5725 38.7716C14.3692 39.0496 15.0734 39.448 15.6756 39.9668C16.2685 40.4763 16.741 41.0878 17.0745 41.7827C17.4081 42.4775 17.6397 43.228 17.5748 44.0247C17.4544 45.6368 16.7873 47.7769 12.961 48.8887V48.9536C12.961 48.9536 15.3791 49.5465 16.5186 50.7509C16.917 51.1678 17.232 51.6218 17.4822 52.1128C17.8064 52.7243 17.9639 53.484 17.9639 54.3919C17.9639 56.0781 17.4359 57.4493 16.3704 58.5147C15.8609 59.0521 15.1845 59.4875 14.3785 59.8211C13.5632 60.1546 12.7757 60.3213 12.016 60.3213H1.45423V59.9322L3.77968 57.8755V40.8655L1.42644 38.7438V38.3455H1.41718ZM7.79129 39.0403V48.5737H11.21C12.0067 48.5737 12.5904 48.1846 12.961 47.4063C13.3316 46.6281 13.5169 45.433 13.5169 43.8116C13.5169 43.0334 13.452 42.32 13.3316 41.6808C13.2111 41.0322 13.0444 40.5412 12.8313 40.2077C12.5811 39.8 12.2661 39.5035 11.8956 39.3183C11.5157 39.133 11.0525 39.0403 10.4966 39.0403H7.79129ZM7.79129 49.2963V59.6265H11.3026C12.0067 59.6265 12.5441 59.3022 12.8961 58.6537C13.1463 58.209 13.3316 57.6253 13.4428 56.8934C13.5632 56.1615 13.6095 55.3555 13.5817 54.4753C13.5447 52.6131 13.3038 51.2883 12.8869 50.4915C12.47 49.6947 11.7844 49.2963 10.8579 49.2963H7.79129Z" fill="#231F20"/>
<path d="M20.0763 40.5782H28.7018C29.4429 40.5782 30.1656 40.708 30.8604 40.9952C31.5553 41.2824 32.1019 41.653 32.5096 42.1162C32.9265 42.5794 33.2415 43.1446 33.4638 43.8116C33.6862 44.4787 33.7974 45.1828 33.7974 45.9147C33.7881 46.693 33.6677 47.3971 33.4175 48.0271C33.1674 48.6571 32.7968 49.1852 32.3057 49.6206C31.8147 50.056 31.2125 50.3988 30.4899 50.6305C29.7672 50.8713 29.0353 51.001 28.1459 51.0381V51.0937C29.4244 52.2332 31.546 52.2888 31.546 52.2888L33.6306 57.9588L35.78 59.9878V60.3399L30.5732 60.3028L27.5252 51.0659L25.3016 51.0752L25.2553 58.033L27.1453 59.96V60.3121L20.0578 60.3213V59.9693L21.9849 58.033L21.9478 42.8481L20.0763 40.9859V40.5782ZM25.2368 41.2638L25.2924 50.3896L27.7568 50.3803C28.3775 50.3803 28.8963 50.2135 29.304 49.88C29.7116 49.5465 30.0266 49.0462 30.2304 48.3606C30.4343 47.6843 30.5454 46.8319 30.5547 45.8128C30.5825 42.7555 29.6282 41.2268 27.7104 41.236L25.2368 41.2638Z" fill="#231F20"/>
<path d="M67.2151 44.7289L79.0462 44.7474L79.3982 50.0283L79.1481 50.019C79.1481 50.019 76.7207 46.2761 76.6003 46.1001C76.4243 45.8499 75.9888 45.572 75.609 45.5534C75.1735 45.5256 72.4682 45.433 72.4682 45.433V51.9739H73.7375C74.1174 51.9554 74.4694 51.9183 74.8029 51.3624C75.1365 50.8158 76.1649 49.1389 76.1649 49.1389H76.4335V54.9942H76.1741C76.1741 54.9942 75.2662 53.4377 74.9049 53.0301C74.6454 52.7429 74.3119 52.5298 73.756 52.5205H72.459V59.6914L76.1649 59.5061C76.5169 59.469 77.1469 59.3301 77.4156 58.8205C77.6379 58.4036 79.6113 54.5495 79.6113 54.5495H79.9078V60.3029H67.2151V60.0249L69.2441 58.6074V46.5448L67.2151 44.9976V44.7289Z" fill="#231F20"/>
<path d="M123.582 52.8817L124.175 52.9929C124.036 54.5679 121.895 60.9142 115.929 60.7845C109.944 60.6548 106.081 55.0775 106.331 49.5835C106.47 46.591 107.229 43.9506 109.258 41.6066C111.074 39.4942 113.205 38.4659 115.66 38.5029C116.457 38.5122 117.17 38.6512 117.819 38.9106C118.458 39.17 119.246 39.6054 119.978 40.2169C120.469 40.6523 120.839 40.8469 121.099 40.8747C122.229 40.9766 123.406 38.6604 123.406 38.6604L123.795 38.6697L124.119 46.7022L123.656 46.6651C123.035 44.9975 119.292 39.0588 116.114 39.3645C113.159 39.6517 111.084 44.8214 111 49.8707C110.926 54.4012 112.529 58.7834 115.994 59.7284C118.69 60.4603 122.813 57.264 123.582 52.8817Z" fill="#231F20"/>
<path d="M125.703 42.0791H134.292V42.4219L131.92 44.1451L131.753 59.5616C131.753 59.5616 133.55 59.367 134.255 59.33C135.061 59.2929 135.654 58.9501 135.922 58.5332C136.209 58.0885 138.6 53.3172 138.6 53.3172H139.072L139.285 60.3306H125.073L125.101 59.96L127.649 58.2553L127.816 44.1451L125.703 42.4126V42.0791Z" fill="#231F20"/>
<path d="M171.99 55.8279L172.471 55.9299C172.175 56.7729 170.007 60.2472 164.958 60.3862C160.733 60.5066 155.98 58.3572 155.98 54.3549C155.98 51.0752 159.649 48.1753 164.393 48.1753C165.106 48.1753 165.755 48.2401 166.347 48.3791C166.931 48.5181 167.561 48.7497 168.228 49.074C168.673 49.3056 169.016 49.3982 169.247 49.426C170.266 49.5372 171.628 48.1938 171.628 48.1938H171.906L172.138 52.5946H171.841C169.97 50.2784 167.292 48.7219 164.837 48.9535C162.086 49.2129 160.715 51.7978 160.715 54.3734C160.715 57.2732 162.892 59.469 165.569 59.469C169.914 59.4597 171.767 56.3282 171.99 55.8279Z" fill="#231F20"/>
<path d="M172.916 44.3583H180.272V44.7103L178.318 46.1649L178.392 52.4278L184.136 46.063L182.172 44.7103V44.3583H187.786V44.7103L184.933 46.2575L181.986 49.4724L187.165 58.487L189.454 60.0527V60.3399H181.718V60.0527L182.913 58.7649L179.429 52.3445L178.364 53.5303L178.355 58.4777L180.319 60.0527V60.3399H172.935V60.0527L174.945 58.4777V46.1556L172.935 44.7011V44.3583H172.916Z" fill="#231F20"/>
<path d="M96.9734 41.5047V41.1897H93.4435V41.5325L94.9537 45.2754V53.0393L87.1158 41.1897H82.3908V41.551L84.2252 44.1081V55.1887L81.9924 59.8951V60.3584H87.2177V59.9322L84.92 55.1887V44.8863L95.0278 60.3584H95.6022V45.2754L96.9734 41.5047Z" fill="#231F20"/>
<path d="M47.611 76.5994C47.6295 76.5994 47.6388 76.6087 47.6388 76.6365V77.3128C47.6388 77.3313 47.6295 77.3406 47.611 77.3406H42.7656C42.747 77.3406 42.7285 77.3313 42.7285 77.3128V69.5212C42.7285 69.5027 42.7378 69.4841 42.7656 69.4841H43.4975C43.516 69.4841 43.5345 69.4934 43.5345 69.5212V76.5902L47.611 76.5994Z" fill="#231F20"/>
<path d="M49.6029 77.3128V69.5212C49.6029 69.5027 49.6122 69.4841 49.64 69.4841H50.3904C50.4182 69.4841 50.4275 69.4934 50.4275 69.5212V77.3128C50.4275 77.3313 50.4182 77.3406 50.3904 77.3406H49.64C49.6122 77.3406 49.6029 77.3313 49.6029 77.3128Z" fill="#231F20"/>
<path d="M53.1699 77.3128V69.5212C53.1699 69.5027 53.1791 69.4841 53.2069 69.4841H54.0685C54.0778 69.4841 54.0963 69.4934 54.0963 69.4934L58.599 76.0621V69.5212C58.599 69.5027 58.6082 69.4841 58.636 69.4841H59.2938C59.3124 69.4841 59.3309 69.4934 59.3309 69.5212V77.3128C59.3309 77.3313 59.3216 77.3406 59.2938 77.3406H58.5897L58.5619 77.3313L53.9018 70.5125V77.3128C53.9018 77.3313 53.8925 77.3406 53.874 77.3406H53.2162C53.1791 77.3406 53.1699 77.3313 53.1699 77.3128Z" fill="#231F20"/>
<path d="M61.4432 73.5421C61.4432 70.9943 63.0738 69.3267 65.1399 69.3267C66.826 69.3267 67.6969 70.2068 68.0582 71.4205C68.0582 71.4298 68.049 71.439 68.0397 71.4575L67.3634 71.7447C67.3449 71.754 67.3263 71.7447 67.3171 71.7077C67.0021 70.7071 66.5296 70.0678 65.1862 70.0678C63.1387 70.0678 62.2678 71.6892 62.2678 73.4031C62.2678 75.358 63.1479 76.7106 65.2325 76.7106C66.8446 76.7106 67.4097 75.6915 67.4097 74.7743V73.8015C67.4097 73.783 67.419 73.7645 67.4468 73.7645H68.1787C68.2065 73.7645 68.2157 73.7737 68.2157 73.8015V77.3036C68.2157 77.3221 68.2065 77.3314 68.1787 77.3314H67.4838C67.456 77.3314 67.4468 77.3221 67.4468 77.3036V76.5161C66.9372 77.0812 66.4554 77.4611 65.1213 77.4611C62.9256 77.4703 61.4432 75.8861 61.4432 73.5421Z" fill="#231F20"/>
<path d="M75.4329 76.5994C75.4607 76.5994 75.47 76.6087 75.47 76.6365V77.3128C75.47 77.3313 75.4607 77.3406 75.4329 77.3406H70.6431C70.6153 77.3406 70.606 77.3313 70.606 77.3128V69.5212C70.606 69.5027 70.6153 69.4841 70.6431 69.4841H75.1457C75.1735 69.4841 75.1828 69.4934 75.1828 69.5212V70.1883C75.1828 70.2068 75.1735 70.2253 75.1457 70.2253L71.412 70.2438V73.0974L73.9784 73.1159C74.0062 73.1159 74.0154 73.1252 74.0154 73.153V73.7737C74.0154 73.7922 74.0062 73.8108 73.9784 73.8108L71.412 73.82V76.5994H75.4329Z" fill="#231F20"/>
<path d="M78.342 77.3128C78.342 77.3313 78.3328 77.3406 78.305 77.3406H77.5823C77.5638 77.3406 77.5453 77.3313 77.5453 77.3128V69.5212C77.5453 69.5027 77.5545 69.4841 77.5823 69.4841H80.3154C81.3623 69.4841 82.4741 70.0956 82.4741 71.8281C82.4741 72.8843 81.8626 73.5328 81.0937 73.8385C81.2419 74.1072 82.1035 75.6359 82.5853 76.5531C82.752 76.8774 82.891 77.1461 83.0115 77.285C83.0485 77.3128 83.0207 77.3406 82.9837 77.3406H82.1035C82.0943 77.3406 82.085 77.3313 82.0665 77.3221L80.3432 74.0331L78.342 74.0238V77.3128ZM80.195 70.1975H78.3328V73.3105H80.1209C81.2882 73.3105 81.7144 72.5322 81.7144 71.791C81.7144 70.9572 81.316 70.1975 80.195 70.1975Z" fill="#231F20"/>
<path d="M84.9756 77.3128V69.5212C84.9756 69.5027 84.9849 69.4841 85.0126 69.4841H85.7724C85.7909 69.4841 85.8094 69.4934 85.8094 69.5212V77.3128C85.8094 77.3313 85.8001 77.3406 85.7724 77.3406H85.0126C84.9941 77.3406 84.9756 77.3313 84.9756 77.3128Z" fill="#231F20"/>
<path d="M88.5425 77.3128V69.5212C88.5425 69.5027 88.5517 69.4841 88.5795 69.4841H89.4412C89.4504 69.4841 89.469 69.4934 89.469 69.4934L93.9716 76.0621V69.5212C93.9716 69.5027 93.9809 69.4841 94.0087 69.4841H94.6665C94.685 69.4841 94.7035 69.4934 94.7035 69.5212V77.3128C94.7035 77.3313 94.6942 77.3406 94.6665 77.3406H93.9531L93.9253 77.3313L89.2651 70.5125V77.3128C89.2651 77.3313 89.2559 77.3406 89.2281 77.3406H88.5703C88.5517 77.3406 88.5425 77.3313 88.5425 77.3128Z" fill="#231F20"/>
<path d="M96.8251 73.5421C96.8251 70.9943 98.4557 69.3267 100.522 69.3267C102.217 69.3267 103.079 70.2068 103.449 71.4205C103.449 71.4298 103.44 71.439 103.422 71.4575L102.745 71.7447C102.727 71.754 102.717 71.7447 102.699 71.7077C102.393 70.7071 101.911 70.0678 100.568 70.0678C98.5298 70.0678 97.6497 71.6892 97.6497 73.4031C97.6497 75.358 98.5298 76.7106 100.614 76.7106C102.226 76.7106 102.792 75.6915 102.792 74.7743V73.8015C102.792 73.783 102.81 73.7645 102.829 73.7645H103.561C103.588 73.7645 103.598 73.7737 103.598 73.8015V77.3036C103.598 77.3221 103.588 77.3314 103.561 77.3314H102.856C102.838 77.3314 102.819 77.3221 102.819 77.3036V76.5161C102.31 77.0812 101.828 77.4611 100.494 77.4611C98.2982 77.4703 96.8251 75.8861 96.8251 73.5421Z" fill="#231F20"/>
<path d="M112.603 77.3128L109.694 69.5212C109.685 69.5026 109.703 69.4749 109.731 69.4749H110.509C110.518 69.4749 110.537 69.4841 110.537 69.4934L113.057 76.34L115.475 69.4934C115.475 69.4841 115.503 69.4749 115.512 69.4749H116.244C116.281 69.4749 116.29 69.4934 116.281 69.5212L113.455 77.3128C113.446 77.3221 113.437 77.3313 113.427 77.3313H112.64C112.621 77.3313 112.612 77.3221 112.603 77.3128Z" fill="#231F20"/>
<path d="M117.106 73.4309C117.106 70.8831 118.875 69.3174 121.025 69.3174C123.239 69.3174 124.879 71.1333 124.879 73.4309C124.879 75.7471 123.267 77.4796 121.025 77.4796C118.569 77.4796 117.106 75.4877 117.106 73.4309ZM117.93 73.4309C117.93 75.2839 119.144 76.7477 121.034 76.7477C122.97 76.7477 124.063 75.358 124.063 73.4309C124.063 71.4668 122.729 70.0678 121.034 70.0678C119.07 70.0678 117.93 71.3463 117.93 73.4309Z" fill="#231F20"/>
<path d="M129.789 77.3313H126.935C126.917 77.3313 126.898 77.3221 126.898 77.3035V69.5119C126.898 69.4934 126.908 69.4749 126.935 69.4749H129.539C130.243 69.4749 130.993 69.6231 131.614 70.0307C132.494 70.6144 133.124 71.7076 133.124 73.4957C133.124 76.0991 131.447 77.3313 129.789 77.3313ZM131.216 70.6885C130.78 70.3735 130.187 70.2068 129.465 70.2068H127.704V76.5994H129.808C131.253 76.5994 132.309 75.534 132.309 73.4124C132.309 72.2079 131.994 71.2537 131.216 70.6885Z" fill="#231F20"/>
<path d="M135.144 77.3035V69.5119C135.144 69.4934 135.153 69.4749 135.181 69.4749H135.913C135.941 69.4749 135.95 69.4841 135.95 69.5119V73.4216L139.026 69.4841L139.054 69.4749H139.878C139.906 69.4749 139.925 69.4934 139.897 69.5304L136.867 73.3753L140.286 77.2757C140.323 77.3035 140.295 77.3313 140.267 77.3313H139.295L139.267 77.3221L135.959 73.5513V77.2943C135.959 77.3128 135.95 77.3221 135.922 77.3221H135.19C135.163 77.3313 135.144 77.3221 135.144 77.3035Z" fill="#231F20"/>
<path d="M141.944 77.3128C141.944 77.3221 141.916 77.3313 141.907 77.3313H141.194C141.157 77.3313 141.148 77.3128 141.157 77.285L144.372 69.4934C144.381 69.4841 144.39 69.4749 144.399 69.4749H144.983C144.992 69.4749 145.002 69.4841 145.02 69.4934L148.105 77.285C148.115 77.3035 148.096 77.3313 148.078 77.3313H147.336C147.327 77.3313 147.299 77.3221 147.299 77.3128L146.225 74.5427H143.065L141.944 77.3128ZM144.668 70.5773L143.343 73.8478H145.937L144.668 70.5773Z" fill="#231F20"/>
</g>
<defs>
<clipPath id="clip0_1083_4970">
<rect width="189" height="77.8236" fill="white" transform="translate(0.5 0.147095)"/>
</clipPath>
</defs>
</svg>
