<svg width="60" height="46" viewBox="0 0 60 46" fill="none" xmlns="http://www.w3.org/2000/svg">
<g clip-path="url(#clip0_1777_13431)">
<path d="M53.9261 0.442657C54.9845 2.0067 55.8542 3.2876 56.8789 4.79771C49.9081 8.97075 44.4339 14.155 43.2137 22.5213C45.4317 22.5213 47.5418 22.2651 49.5643 22.5685C55.362 23.4382 59.0969 27.1865 59.8654 32.5663C60.5261 37.2449 57.7283 42.7325 53.6632 44.7146C48.9778 47 42.7688 45.8876 39.1014 41.8966C33.4384 35.7415 32.7643 28.4404 35.0092 20.809C37.8542 11.1011 44.8115 4.99996 53.9261 0.442657Z" fill="#231F20"/>
<path d="M20.6024 0.476366C21.6676 2.04041 22.5373 3.30783 23.5485 4.79771C16.544 9.07187 11.0631 14.2494 9.90355 22.5146C12.1283 22.5146 14.2451 22.2584 16.2811 22.5618C21.917 23.4045 25.78 27.2 26.4811 32.2359C27.2092 37.4943 24.5125 42.7325 20.0024 44.8157C15.2833 46.9932 9.07434 45.7123 5.54176 41.6539C-0.229029 35.0269 -0.532399 27.3618 2.13052 19.5213C5.1912 10.4943 11.9193 4.76401 20.6024 0.476366Z" fill="#231F20"/>
</g>
<defs>
<clipPath id="clip0_1777_13431">
<rect width="60" height="45.8427" fill="white" transform="translate(0 0.0786133)"/>
</clipPath>
</defs>
</svg>
