<svg width="120" height="125" viewBox="0 0 120 125" fill="none" xmlns="http://www.w3.org/2000/svg">
<g clip-path="url(#clip0_2251_15909)">
<path fill-rule="evenodd" clip-rule="evenodd" d="M48.2386 85.2419H48.2253L46.4253 80.4419H45.7854L47.932 86.1086H48.5053L50.7186 80.4419H50.092L48.2386 85.2419ZM45.9586 72.6819H45.972L49.3453 77.5352H50.0653V71.8685H49.492V76.6685H49.4786L46.1053 71.8685H45.3853V77.5352H45.9586V72.6819ZM51.292 75.3219L51.3587 75.6152L51.452 75.8952L51.572 76.1619L51.7186 76.4019L51.8786 76.6285L52.0653 76.8285L52.2653 77.0152L52.492 77.1752L52.732 77.3219L52.9987 77.4419L53.2787 77.5352L53.5586 77.6019L53.852 77.6419L54.172 77.6552L54.5187 77.6419L54.8786 77.5885L55.252 77.5085L55.532 77.4285L55.7986 77.3352L56.052 77.2152L56.3053 77.0819V74.3086H54.372V74.8285H55.7186V76.7219L55.492 76.8419L55.252 76.9352L54.9853 77.0152L54.7186 77.0686L54.4387 77.1086L54.1587 77.1219L53.892 77.1086L53.6386 77.0686L53.3986 77.0019L53.172 76.9085L52.9586 76.8019L52.772 76.6819L52.5987 76.5352L52.4387 76.3752L52.3053 76.2019L52.1853 76.0152L52.0787 75.8152L51.9853 75.6019L51.9187 75.3752L51.8654 75.1486L51.8387 74.9085L51.8253 74.6685L51.8387 74.3486L51.892 74.0419L51.9853 73.7352L52.0787 73.5219L52.1853 73.3219L52.3053 73.1352L52.4387 72.9619L52.5987 72.8019L52.772 72.6552L52.9586 72.5352L53.172 72.4285L53.3986 72.3486L53.6386 72.2819L53.892 72.2419L54.1587 72.2286L54.412 72.2419L54.652 72.2686L54.8654 72.3219L55.0787 72.4019L55.2653 72.4952L55.452 72.6019L55.612 72.7352L55.7587 72.8819L56.1853 72.4552L55.9853 72.2686L55.772 72.1219L55.5453 71.9886L55.3053 71.8819L55.052 71.8019L54.772 71.7352L54.4653 71.6952L54.132 71.6819L53.812 71.6952L53.5187 71.7352L53.2386 71.8019L52.9586 71.8952L52.692 72.0152L52.452 72.1619L52.2253 72.3219L52.0254 72.5085L51.8387 72.7219L51.6787 72.9485L51.532 73.1886L51.412 73.4552L51.3186 73.7352L51.252 74.0286L51.212 74.3352L51.1987 74.6552L51.212 74.9752L51.292 75.3219ZM56.932 82.6552L56.8654 82.3619L56.772 82.0819L56.652 81.8152L56.5053 81.5752L56.3453 81.3486L56.1587 81.1352L55.9586 80.9485L55.732 80.7885L55.4786 80.6419L55.2253 80.5219L54.9454 80.4285L54.6653 80.3619L54.372 80.3219L54.052 80.3086L53.7453 80.3219L53.4387 80.3619L53.1587 80.4285L52.8786 80.5219L52.6253 80.6419L52.3853 80.7885L52.1587 80.9485L51.9586 81.1352L51.772 81.3486L51.612 81.5752L51.4653 81.8152L51.3453 82.0819L51.252 82.3619L51.1853 82.6552L51.132 82.9619L51.1187 83.2819L51.132 83.6019L51.1853 83.9085L51.252 84.2019L51.3453 84.4819L51.4653 84.7485L51.612 84.9886L51.772 85.2152L51.9586 85.4285L52.1587 85.6152L52.3853 85.7752L52.6253 85.9219L52.8786 86.0419L53.1587 86.1352L53.4387 86.2019L53.7453 86.2419L54.052 86.2552L54.372 86.2419L54.6653 86.2019L54.9454 86.1352L55.2253 86.0419L55.4786 85.9219L55.732 85.7752L55.9586 85.6152L56.1587 85.4285L56.3453 85.2152L56.5053 84.9886L56.652 84.7485L56.772 84.4819L56.8654 84.2019L56.932 83.9085L56.972 83.6019L56.9853 83.2819L56.972 82.9619L56.932 82.6552ZM56.3453 83.5219L56.3186 83.7619L56.2653 83.9886L56.1987 84.2152L56.1053 84.4285L55.9987 84.6285L55.8786 84.8152L55.732 84.9886L55.572 85.1486L55.3986 85.2952L55.212 85.4152L54.9987 85.5219L54.772 85.6152L54.532 85.6819L54.2787 85.7219L54.012 85.7352L53.7453 85.7219L53.492 85.6819L53.252 85.6152L53.0254 85.5219L52.812 85.4152L52.6253 85.2952L52.452 85.1486L52.292 84.9886L52.1453 84.8152L52.0254 84.6285L51.9187 84.4285L51.8253 84.2152L51.7587 83.9886L51.7054 83.7619L51.6787 83.5219L51.6653 83.2819L51.6787 83.0419L51.7054 82.8019L51.7587 82.5752L51.8253 82.3486L51.9187 82.1352L52.0254 81.9352L52.1453 81.7485L52.292 81.5752L52.452 81.4152L52.6253 81.2686L52.812 81.1486L53.0254 81.0419L53.252 80.9619L53.492 80.8952L53.7453 80.8552L54.012 80.8419L54.2787 80.8552L54.532 80.8952L54.772 80.9619L54.9987 81.0419L55.212 81.1486L55.3986 81.2686L55.572 81.4152L55.732 81.5752L55.8786 81.7485L55.9987 81.9352L56.1053 82.1352L56.1987 82.3486L56.2787 82.6552L56.332 82.9619L56.3453 83.2819V83.5219ZM39.852 71.8685H39.2787V77.5352H42.492V77.0019H39.852V71.8685ZM43.2787 77.5352H43.852V71.8685H43.2787V77.5352ZM73.5586 76.6685H73.5453L70.1587 71.8685H69.4387V77.5352H70.012V72.6819H70.0254L73.412 77.5352H74.132V71.8685H73.5586V76.6685ZM67.5586 80.4419H66.9053L64.732 82.8952H64.652V80.4419H64.0787V86.1086H64.652V83.1886H64.7453L67.052 86.1086H67.732L65.3587 83.0019L67.5586 80.4419ZM65.6787 77.5352H66.3853L64.7587 74.8419L64.9853 74.8152L65.1987 74.7619L65.3853 74.6952L65.5453 74.6019L65.692 74.4952L65.8253 74.3752L65.932 74.2419L66.0254 74.0952L66.092 73.9352L66.1453 73.7619L66.172 73.5752L66.1853 73.3752L66.172 73.1619L66.1453 72.9619L66.092 72.7885L66.0254 72.6152L65.932 72.4685L65.8253 72.3352L65.692 72.2152L65.5187 72.1086L65.3186 72.0152L65.1053 71.9352L64.8654 71.8819L64.612 71.8552L64.332 71.8419H62.5853V77.5085H63.1587V74.8685H64.1187L65.6787 77.5352ZM63.172 72.4019H64.1987L64.4387 72.4152L64.652 72.4419L64.8387 72.4819L64.9987 72.5352L65.1453 72.6019L65.2653 72.6819L65.3587 72.7752L65.4387 72.8819L65.492 72.9886L65.5453 73.1752L65.5586 73.3752L65.5453 73.5752L65.492 73.7619L65.4387 73.8819L65.3587 73.9886L65.2653 74.0819L65.1453 74.1619L64.9987 74.2286L64.8387 74.2819L64.652 74.3219L64.4387 74.3486L64.1987 74.3619H63.172V72.4019ZM67.332 77.5352H67.9053V71.8685H67.332V77.5352ZM70.812 80.4419L68.3453 86.1086H69.012L69.6386 84.6152H72.532L73.1587 86.1086H73.8253L71.3587 80.4419H70.812ZM69.852 84.0952L71.0787 81.1219L72.3053 84.0952H69.852ZM78.452 74.3219V74.8419H79.812V76.7352L79.5853 76.8552L79.3453 76.9485L79.0787 77.0286L78.7986 77.0819L78.5187 77.1219L78.2386 77.1352L77.972 77.1219L77.7186 77.0819L77.4786 77.0152L77.252 76.9219L77.0387 76.8152L76.852 76.6952L76.6787 76.5485L76.5187 76.3885L76.372 76.2152L76.252 76.0286L76.1453 75.8285L76.052 75.6152L75.9853 75.3885L75.932 75.1619L75.9053 74.9219L75.892 74.6819L75.9053 74.3619L75.9586 74.0552L76.052 73.7485L76.1453 73.5352L76.252 73.3352L76.372 73.1486L76.5187 72.9752L76.6787 72.8152L76.852 72.6685L77.0387 72.5485L77.252 72.4419L77.4786 72.3619L77.7186 72.2952L77.972 72.2552L78.2386 72.2419L78.492 72.2552L78.732 72.2819L78.9586 72.3352L79.172 72.4152L79.3587 72.5085L79.532 72.6152L79.692 72.7485L79.8387 72.8952L80.2653 72.4685L80.0653 72.2819L79.852 72.1352L79.6253 72.0019L79.3853 71.8952L79.132 71.8152L78.852 71.7485L78.5453 71.7085L78.212 71.6952L77.9053 71.7085L77.5987 71.7485L77.3186 71.8152L77.0387 71.9085L76.7854 72.0286L76.5453 72.1752L76.3186 72.3352L76.1187 72.5219L75.932 72.7352L75.772 72.9619L75.6253 73.2019L75.5053 73.4685L75.412 73.7485L75.3453 74.0419L75.3053 74.3486L75.292 74.6685L75.3053 74.9886L75.3453 75.2952L75.412 75.5885L75.5053 75.8685L75.6253 76.1352L75.772 76.3752L75.932 76.6019L76.1187 76.8019L76.3186 76.9886L76.5453 77.1486L76.7854 77.2952L77.0387 77.4152L77.3186 77.5085L77.5987 77.5752L77.9053 77.6152L78.212 77.6285L78.5586 77.6152L78.9187 77.5619L79.292 77.4819L79.6653 77.3752L80.012 77.2286L80.3453 77.0552V74.2819H78.452V74.3219ZM61.452 77.0019H58.412V74.8419H61.1587V74.3219H58.412V72.3885H61.3453V71.8552H57.8253V77.5219H61.4387V77.0019H61.452ZM62.8786 82.7352L62.8253 82.4819L62.7453 82.2552L62.652 82.0419L62.5053 81.7885L62.3453 81.5485L62.172 81.3352L61.9586 81.1486L61.7453 80.9752L61.5053 80.8285L61.2653 80.7085L60.9987 80.6152L60.732 80.5352L60.4653 80.4819L60.1987 80.4419L59.932 80.4285H58.052V86.0952H59.932L60.1987 86.0819L60.4653 86.0419L60.732 85.9886L60.9987 85.9085L61.2653 85.8019L61.5053 85.6819L61.7453 85.5352L61.9586 85.3619L62.172 85.1752L62.3453 84.9619L62.5053 84.7352L62.652 84.4819L62.7453 84.2552L62.8253 84.0152L62.8786 83.7752L62.9053 83.5085L62.9187 83.2286L62.9053 82.9485L62.8786 82.7352ZM62.2787 83.5619L62.2253 83.8419L62.1453 84.1219L62.052 84.3219L61.9454 84.5085L61.812 84.6819L61.6653 84.8552L61.5053 85.0152L61.3186 85.1486L61.1053 85.2686L60.8786 85.3752L60.6253 85.4552L60.3587 85.5219L60.0653 85.5619L59.7587 85.5752H58.6386V80.9619H59.7587L60.0653 80.9752L60.3587 81.0152L60.6253 81.0819L60.8786 81.1619L61.1053 81.2686L61.3186 81.3885L61.5053 81.5219L61.6653 81.6819L61.812 81.8552L61.9454 82.0286L62.052 82.2152L62.1453 82.4152L62.2253 82.6952L62.2787 82.9752L62.292 83.2686L62.2787 83.5619Z" fill="#939598"/>
<path d="M60.1074 26.2288H59.0674V28.5087H60.1074V26.2288Z" fill="#231F20"/>
<path d="M60.1074 95.4019H59.0674V97.6818H60.1074V95.4019Z" fill="#231F20"/>
<path d="M42.4127 32.1091L41.5061 32.6157L40.3461 30.6424L41.2394 30.1357L42.4127 32.1091Z" fill="#231F20"/>
<path d="M76.5465 91.8022L77.4399 91.2822L78.6132 93.2556L77.7066 93.7622L76.5465 91.8022Z" fill="#231F20"/>
<path d="M28.0799 43.6821L27.5599 44.5621L25.5465 43.4154L26.0665 42.5354L28.0799 43.6821Z" fill="#231F20"/>
<path d="M90.9059 80.2153L91.4259 79.3486L93.4392 80.482L92.9192 81.362L90.9059 80.2153Z" fill="#231F20"/>
<path d="M19.6716 61.4382L19.6689 62.4521L22.0023 62.4583L22.0049 61.4444L19.6716 61.4382Z" fill="#231F20"/>
<path d="M99.2263 61.4424H96.8929V62.4562H99.2263V61.4424Z" fill="#231F20"/>
<path d="M27.5599 79.3752L28.0799 80.2552L26.0665 81.3886L25.5465 80.5219L27.5599 79.3752Z" fill="#231F20"/>
<path d="M91.4516 44.5885L90.9449 43.7085L92.9582 42.5752L93.4782 43.4552L91.4516 44.5885Z" fill="#231F20"/>
<path d="M41.6522 91.3218L42.5455 91.8284L41.3855 93.8018L40.4789 93.2951L41.6522 91.3218Z" fill="#231F20"/>
<path d="M77.5184 32.6157L76.6117 32.1091L77.785 30.1357L78.6783 30.6424L77.5184 32.6157Z" fill="#231F20"/>
<path d="M61.4538 61.9484C61.4538 63.055 60.5605 63.9617 59.4405 63.9617C58.3338 63.9617 57.4271 63.0684 57.4271 61.9484C57.4271 60.8417 58.3338 59.9351 59.4405 59.9351C60.5605 59.9351 61.4538 60.8417 61.4538 61.9484Z" fill="#231F20"/>
<path d="M111.813 33.4423C112.32 34.4023 112.52 35.4156 112.44 36.4823C112.346 37.5623 111.973 38.6289 111.293 39.6822C110.866 40.3622 110.333 41.0022 109.693 41.5756C109.066 42.1622 108.36 42.6422 107.6 43.0422C106.28 43.7356 104.92 44.1089 103.533 44.1889C102.146 44.2556 100.88 44.0289 99.773 43.4823C98.653 42.9356 97.8263 42.1622 97.293 41.1356C96.773 40.1356 96.5996 39.0156 96.7996 37.8022C96.9863 36.5889 97.5197 35.4289 98.3597 34.3223C99.1997 33.2289 100.253 32.3489 101.533 31.6822C102.48 31.1889 103.493 30.8556 104.533 30.6822C105.586 30.5089 106.586 30.5089 107.56 30.6822C108.52 30.8422 109.373 31.1622 110.12 31.6422C110.88 32.1089 111.44 32.7089 111.813 33.4423ZM111.466 33.8689C111.16 33.2822 110.773 32.8823 110.306 32.6556C109.84 32.4423 109.266 32.3756 108.56 32.4823C108.04 32.5623 107.493 32.7222 106.906 32.9356C106.426 33.1222 105.786 33.4022 105 33.7622C104.213 34.1356 103.4 34.5356 102.533 34.9889C102.066 35.2289 101.546 35.5223 100.973 35.8556C100.4 36.1889 99.9196 36.4823 99.5596 36.7356C98.653 37.3756 98.053 38.0022 97.733 38.6156C97.3196 39.3489 97.3464 40.1356 97.7864 40.9756C98.0664 41.4956 98.4397 41.8689 98.9063 42.0689C99.3863 42.2823 99.973 42.3223 100.666 42.2289C101.093 42.1756 101.64 42.0289 102.28 41.8022C102.706 41.6422 103.306 41.3756 104.066 41.0289C104.826 40.6689 105.626 40.2689 106.466 39.8422C108.053 39.0156 109.253 38.2822 110.093 37.6289C110.933 36.9756 111.453 36.3489 111.666 35.7622C111.88 35.1489 111.813 34.5356 111.466 33.8689Z" fill="#231F20"/>
<path d="M21.5604 82.1752C22.1337 83.1352 22.3871 84.1752 22.3604 85.2952C22.3204 86.4152 21.9871 87.5352 21.3337 88.6685C20.9204 89.4018 20.4004 90.0819 19.7738 90.7219C19.1471 91.3619 18.4404 91.9085 17.6671 92.3619C16.3204 93.1485 14.9337 93.6285 13.4804 93.7752C12.0404 93.9219 10.7204 93.7485 9.53377 93.2552C8.34711 92.7618 7.44041 91.9885 6.84041 90.9618C6.24041 89.9485 6.01373 88.8018 6.1604 87.5352C6.30707 86.2552 6.7871 85.0285 7.61377 83.8419C8.4271 82.6552 9.48043 81.6819 10.7738 80.9219C11.7338 80.3485 12.7604 79.9485 13.8404 79.7219C14.9204 79.4952 15.9737 79.4285 16.9871 79.5485C18.0004 79.6685 18.9071 79.9485 19.7071 80.4019C20.5071 80.8419 21.1204 81.4285 21.5604 82.1752ZM21.2137 82.6419C20.8537 82.0419 20.4404 81.6552 19.9471 81.4552C19.4538 81.2552 18.8404 81.2285 18.1204 81.3752C17.5871 81.4952 17.0271 81.6818 16.4271 81.9485C15.9338 82.1618 15.2804 82.4952 14.4804 82.9219C13.6804 83.3485 12.8537 83.8152 11.9871 84.3219C11.5204 84.5885 10.9871 84.9219 10.4004 85.3085C9.82706 85.6819 9.34705 86.0152 8.97371 86.2952C8.06705 87.0018 7.46708 87.6819 7.17375 88.3485C6.78708 89.1352 6.84042 89.9485 7.34709 90.7885C7.66709 91.3218 8.06706 91.6818 8.57373 91.8685C9.0804 92.0552 9.69374 92.0685 10.4137 91.9352C10.8537 91.8552 11.4137 91.6685 12.0671 91.4019C12.5071 91.2152 13.1204 90.9085 13.8937 90.4952C14.6671 90.0818 15.4804 89.6285 16.3204 89.1218C17.9204 88.1752 19.1471 87.3485 19.9871 86.6152C20.8271 85.8952 21.3471 85.2152 21.5338 84.5885C21.7071 83.9485 21.6137 83.3085 21.2137 82.6419Z" fill="#231F20"/>
<path d="M51.0651 0.842041H60.3451C61.2251 0.842041 62.0518 0.975378 62.8384 1.24205C63.6251 1.50871 64.2917 1.89537 64.8784 2.37537C65.465 2.8687 65.9051 3.44204 66.2251 4.1087C66.5451 4.77537 66.7717 5.48204 66.7184 6.24204C66.5984 7.77538 65.9584 9.80205 62.2517 10.8687V10.922C62.2517 10.922 64.5851 11.4954 65.7051 12.642C66.0918 13.0287 66.3984 13.4687 66.6384 13.9354C66.9584 14.5087 67.1184 15.242 67.1184 16.1087C67.1184 17.7087 66.5984 19.0154 65.5717 20.0287C65.0651 20.5354 64.4251 20.9487 63.6384 21.2687C62.8517 21.5887 62.0918 21.7487 61.3451 21.7487H51.1184V21.3754L53.3718 19.4154V3.24204L51.0918 1.22872V0.842041H51.0651ZM57.2384 1.50871V10.5754H60.545C61.3184 10.5754 61.8917 10.202 62.2517 9.46871C62.6117 8.72204 62.7851 7.58871 62.7851 6.05538C62.7851 5.30871 62.7318 4.64204 62.6118 4.02871C62.4918 3.41537 62.3317 2.9487 62.1317 2.6287C61.8917 2.24204 61.5851 1.96204 61.2251 1.77537C60.8651 1.60204 60.4117 1.50871 59.8784 1.50871H57.2384ZM57.2384 11.2687V21.0954H60.6384C61.3317 21.0954 61.8384 20.7887 62.1851 20.1754C62.4251 19.762 62.5984 19.202 62.7184 18.4954C62.8384 17.802 62.8784 17.042 62.8518 16.1887C62.8118 14.4154 62.5851 13.1487 62.1718 12.402C61.7584 11.642 61.1051 11.2687 60.1984 11.2687H57.2384Z" fill="#231F20"/>
<path d="M86.3726 7.69556L93.5859 11.9222C94.2126 12.2822 94.7326 12.7622 95.1726 13.3356C95.6126 13.9222 95.8793 14.5089 95.9859 15.0956C96.1059 15.6822 96.0793 16.3089 95.9326 16.9756C95.786 17.6422 95.5326 18.2822 95.1593 18.8956C94.7726 19.5489 94.3193 20.0689 93.786 20.4556C93.266 20.8556 92.6926 21.1089 92.0659 21.2289C91.4393 21.3489 90.7726 21.3222 90.0526 21.1622C89.3326 21.0022 88.6659 20.7489 87.9059 20.3356L87.8792 20.3889C88.3726 21.9756 90.1193 23.0689 90.1193 23.0689L88.946 28.9222L89.7192 31.6822L89.5459 31.9756L85.3193 29.2556L87.3859 20.0556L85.5326 18.9622L82.0393 24.7222L82.6793 27.2422L82.5059 27.5356L76.5859 24.0422L76.7726 23.7489L79.3459 23.0956L86.866 10.4556L86.2393 7.97557L86.3726 7.69556ZM90.3459 10.7622L85.8526 18.3755L87.9059 19.5889C88.4259 19.8956 88.946 20.0156 89.4526 19.9489C89.9593 19.8822 90.4659 19.6156 90.9726 19.1489C91.4792 18.6956 91.9993 18.0422 92.5059 17.1889C94.0526 14.6555 94.0126 12.9222 92.4126 11.9622L90.3459 10.7622Z" fill="#231F20"/>
<path d="M103.24 56.1752C106.28 55.8818 107.693 55.7485 110.613 55.4685C110.613 55.5485 110.613 55.5752 110.613 55.6552C109.84 56.1885 109.453 56.4685 108.68 57.0152C108.706 58.6418 108.706 59.5352 108.733 61.2818C110.786 59.4552 111.773 58.3352 113.853 56.3885C113.08 56.0285 112.706 55.8685 111.946 55.5485C111.946 55.4685 111.946 55.4419 111.946 55.3619C114.08 55.1619 115.146 55.0552 117.4 54.8152C117.4 54.8952 117.4 54.9218 117.4 55.0018C116.266 55.5618 115.706 55.8552 114.626 56.4419C113.68 57.3752 113.2 57.8685 112.28 58.8152C114.253 61.5352 115.213 63.4018 117.2 66.2952C118.12 66.8818 118.586 67.1619 119.533 67.6952C119.533 67.7752 119.533 67.8152 119.533 67.8818C116.28 67.5885 114.8 67.4418 111.733 67.1618C111.733 67.0952 111.733 67.0552 111.733 66.9752C112.213 66.5885 112.453 66.3752 112.933 65.9352C111.653 64.1352 111.013 63.1085 109.72 61.3219C109.333 61.6952 109.133 61.8818 108.746 62.2285C108.76 63.5885 108.773 64.2685 108.786 65.5352C109.586 66.0818 109.973 66.3618 110.76 66.8952C110.76 66.9618 110.76 67.0018 110.76 67.0818C107.866 66.8285 106.44 66.6952 103.253 66.4552V66.2685C104.106 65.8818 104.52 65.6818 105.32 65.2685C105.293 62.1485 105.293 60.4419 105.266 57.3219C104.466 56.9352 104.066 56.7485 103.253 56.3752V56.1752H103.24Z" fill="#231F20"/>
<path d="M94.8125 87.5752L100.799 77.7886L105.426 80.0153L105.306 80.2286C105.306 80.2286 100.706 80.4953 100.506 80.5086C100.213 80.5353 99.7725 80.7752 99.5725 81.0819C99.3458 81.4419 97.8792 83.5619 97.8792 83.5619L103.426 86.6419L103.999 85.6686C104.159 85.3352 104.306 85.0286 103.999 84.4819C103.706 83.9486 102.733 82.2686 102.733 82.2686L102.799 82.0953L107.933 84.5486L107.812 84.7619C107.812 84.7619 105.972 85.0819 105.466 85.1886C105.092 85.2686 104.759 85.4552 104.479 85.9219L103.906 86.9086L109.959 90.3219L111.573 87.1086C111.706 86.7886 111.893 86.2019 111.599 85.7219C111.359 85.3353 108.972 81.9753 108.972 81.9753L109.052 81.7486L114.159 84.0686L108.106 94.8019L107.866 94.6819L107.533 92.4819L97.3459 86.7353L95.0792 87.6953L94.8125 87.5752Z" fill="#231F20"/>
<path d="M66.9862 115.989L67.5728 116.082C67.4528 117.615 65.4529 123.802 59.5995 123.762C53.7195 123.735 49.8395 118.389 49.9995 113.069C50.0795 110.162 50.7995 107.589 52.7462 105.282C54.4928 103.215 56.5728 102.175 58.9728 102.175C59.7595 102.175 60.4662 102.295 61.1062 102.535C61.7329 102.775 62.5195 103.189 63.2529 103.762C63.7462 104.175 64.1062 104.362 64.3595 104.375C65.4795 104.455 66.5862 102.189 66.5862 102.189H66.9728L67.4128 109.975L66.9595 109.949C66.3328 108.349 62.5595 102.642 59.4395 102.989C56.5462 103.309 54.5862 108.349 54.5862 113.242C54.5862 117.629 56.2262 121.855 59.6528 122.709C62.3062 123.402 66.3062 120.255 66.9862 115.989Z" fill="#231F20"/>
<path d="M31.8665 93.7085L38.9331 98.4019L38.7197 98.6685L35.6531 98.8418L26.0131 110.948C26.0131 110.948 28.6931 112.655 29.2798 113.002C29.9598 113.402 30.6131 113.442 31.0531 113.255C31.5197 113.055 35.8398 110.415 35.8398 110.415L36.2264 110.655L32.9998 116.682L20.4531 107.935L20.6531 107.682L23.6264 107.668L32.4931 96.5752L31.6397 93.9885L31.8665 93.7085Z" fill="#231F20"/>
<path d="M15.6659 63.4819L16.1325 63.5886C15.8392 64.4019 13.7459 67.7752 8.85258 67.9086C4.75925 68.0152 0.145874 65.9353 0.145874 62.0553C0.145874 58.8819 3.70585 56.0686 8.29252 56.0686C8.98585 56.0686 9.61258 56.1353 10.1859 56.2686C10.7459 56.4019 11.3592 56.6286 12.0126 56.9486C12.4392 57.1752 12.7726 57.2552 12.9992 57.2819C13.9859 57.3886 15.3059 56.0953 15.3059 56.0953H15.5859L15.8125 60.3619H15.5326C13.7193 58.1219 11.1326 56.6019 8.74589 56.8286C6.07922 57.0819 4.75924 59.5886 4.75924 62.0819C4.75924 64.8952 6.86586 67.0153 9.46586 67.0153C13.6525 67.0019 15.4526 63.9753 15.6659 63.4819Z" fill="#231F20"/>
<path d="M4.61194 37.8687L8.53194 31.9887L8.75859 32.1354L8.91858 34.5221L14.0253 37.8021L11.7719 29.1354L9.63855 30.0154L9.41191 29.8554L12.4786 25.3621L12.7185 25.5087L12.3453 28.5887L13.5586 33.3221L23.6119 33.9487L26.0919 32.9354L26.3319 33.0821L22.1719 39.3221L21.9453 39.1754L21.5586 37.5354L14.5186 36.9221L14.9052 38.4154L18.9052 41.082L21.2119 40.3087L21.4386 40.4687L17.5319 46.3487L17.3052 46.1887L17.0919 43.8021L7.11861 37.2554L4.85193 38.0154L4.61194 37.8687Z" fill="#231F20"/>
<path d="M88.1456 93.402L87.919 93.1753L85.1323 95.0153L85.319 95.2953L89.1857 97.3753L93.519 102.055L80.4123 97.7486L75.599 100.109L75.799 100.442L79.319 101.495L85.239 111.029L86.0257 116.282L86.3056 116.615L90.5323 113.815L90.3056 113.442L85.8123 110.735L80.239 101.775L98.5323 107.789L99.1456 107.335L89.6656 97.042L88.1456 93.402Z" fill="#231F20"/>
<path d="M59.6658 32.7886L49.4791 42.9753L59.6658 53.1619L69.8658 42.9753L59.6658 32.7886ZM50.4258 42.9886L59.6658 33.7353L68.9191 42.9886L59.6658 52.2419L50.4258 42.9886ZM59.4392 40.0286V40.9086H59.4658C61.6391 40.9086 63.9058 41.3753 64.8658 42.0286L65.3592 41.2952C64.2658 40.5486 61.8391 40.0286 59.4658 40.0286C59.4658 40.0286 59.4525 40.0286 59.4392 40.0286ZM60.2124 42.2686C60.5458 42.0153 60.8258 41.6819 60.9991 41.2952C60.6791 41.2686 60.3458 41.2419 60.0125 41.2286C59.7725 41.5486 59.4259 41.7752 59.0392 41.8686V38.3886C59.6792 38.5353 60.1725 39.0553 60.3191 39.7219C60.6258 39.7353 60.9325 39.7619 61.2258 39.7886C61.0658 38.4819 59.9725 37.4552 58.6525 37.4552H58.1458V44.5086C58.4258 44.5353 58.7192 44.5486 59.0258 44.5619V42.7619H59.0392C60.1059 42.9619 60.9858 44.0153 60.9858 45.1886C60.9858 46.2953 60.1592 47.1486 59.0258 47.2952V46.0819C58.7192 46.0686 58.4258 46.0553 58.1458 46.0286V48.2019H58.6792C60.5058 48.2019 61.8658 46.9086 61.8658 45.1886C61.8792 43.9619 61.1991 42.8553 60.2124 42.2686ZM59.4791 45.7886C59.8525 45.7886 60.2125 45.7752 60.5858 45.7486C60.6391 45.5752 60.6792 45.4019 60.6792 45.2019C60.6792 45.0819 60.6658 44.9619 60.6391 44.8553C60.2525 44.8819 59.8524 44.8953 59.4658 44.8953C56.2658 44.8953 54.3458 43.8819 54.3458 42.8953C54.3458 42.1086 55.5858 41.2952 57.7325 41.0019V40.1353C55.1458 40.4553 53.4658 41.5086 53.4658 42.9086C53.4658 44.6019 55.9458 45.7886 59.4791 45.7886ZM65.3858 44.5086L64.8791 43.7886C64.3191 44.1752 63.3191 44.4819 62.1591 44.6953C62.1858 44.8686 62.1992 45.0419 62.1992 45.2286C62.1992 45.3486 62.1858 45.4686 62.1858 45.5886C63.5458 45.3486 64.7191 44.9619 65.3858 44.5086Z" fill="#C17760"/>
</g>
<defs>
<clipPath id="clip0_2251_15909">
<rect width="120" height="124" fill="white" transform="translate(0 0.135742)"/>
</clipPath>
</defs>
</svg>
