<svg width="25" height="26" viewBox="0 0 25 26" fill="none" xmlns="http://www.w3.org/2000/svg">
<path d="M21.25 4.13757C20.104 2.97998 18.739 2.06216 17.2345 1.43764C15.7301 0.813117 14.1164 0.4944 12.4875 0.500074C5.6625 0.500074 0.1 6.06257 0.1 12.8876C0.1 15.0751 0.675 17.2001 1.75 19.0751L0 25.5001L6.5625 23.7751C8.375 24.7626 10.4125 25.2876 12.4875 25.2876C19.3125 25.2876 24.875 19.7251 24.875 12.9001C24.875 9.58757 23.5875 6.47507 21.25 4.13757ZM12.4875 23.1876C10.6375 23.1876 8.825 22.6876 7.2375 21.7501L6.8625 21.5251L2.9625 22.5501L4 18.7501L3.75 18.3626C2.72218 16.7213 2.17643 14.8241 2.175 12.8876C2.175 7.21257 6.8 2.58757 12.475 2.58757C15.225 2.58757 17.8125 3.66257 19.75 5.61257C20.7094 6.56753 21.4696 7.7034 21.9867 8.95436C22.5039 10.2053 22.7675 11.5465 22.7625 12.9001C22.7875 18.5751 18.1625 23.1876 12.4875 23.1876ZM18.1375 15.4876C17.825 15.3376 16.3 14.5876 16.025 14.4751C15.7375 14.3751 15.5375 14.3251 15.325 14.6251C15.1125 14.9376 14.525 15.6376 14.35 15.8376C14.175 16.0501 13.9875 16.0751 13.675 15.9126C13.3625 15.7626 12.3625 15.4251 11.1875 14.3751C10.2625 13.5501 9.65 12.5376 9.4625 12.2251C9.2875 11.9126 9.4375 11.7501 9.6 11.5876C9.7375 11.4501 9.9125 11.2251 10.0625 11.0501C10.2125 10.8751 10.275 10.7376 10.375 10.5376C10.475 10.3251 10.425 10.1501 10.35 10.0001C10.275 9.85007 9.65 8.32507 9.4 7.70007C9.15 7.10007 8.8875 7.17507 8.7 7.16257H8.1C7.8875 7.16257 7.5625 7.23757 7.275 7.55007C7 7.86257 6.2 8.61257 6.2 10.1376C6.2 11.6626 7.3125 13.1376 7.4625 13.3376C7.6125 13.5501 9.65 16.6751 12.75 18.0126C13.4875 18.3376 14.0625 18.5251 14.5125 18.6626C15.25 18.9001 15.925 18.8626 16.4625 18.7876C17.0625 18.7001 18.3 18.0376 18.55 17.3126C18.8125 16.5876 18.8125 15.9751 18.725 15.8376C18.6375 15.7001 18.45 15.6376 18.1375 15.4876Z" fill="#231F20"/>
</svg>
