<svg width="16" height="16" viewBox="0 0 16 16" fill="none" xmlns="http://www.w3.org/2000/svg">
<path d="M8.00225 16L0 8L7.99774 0L16 8L8.00225 16ZM0.73978 8L8.00225 15.2604L15.2647 8L8.00225 0.739571L0.73978 8Z" fill="#231F20"/>
<path d="M12.0891 7.25142L12.4815 6.6787C11.62 6.08795 9.71187 5.68208 7.85339 5.68208C7.84437 5.68208 7.83535 5.68208 7.83084 5.68208V6.37656C7.83986 6.37656 7.84437 6.37656 7.85339 6.37656C9.5585 6.37205 11.3403 6.74183 12.0891 7.25142Z" fill="#231F20"/>
<path d="M7.51508 7.13417V4.39685C8.01578 4.5141 8.40823 4.92447 8.52551 5.44308C8.76459 5.4566 9.00366 5.47464 9.24274 5.49719C9.11643 4.46901 8.25937 3.6663 7.22638 3.6663H6.82492V7.8557H7.22638C8.02932 7.8557 8.72399 7.37318 9.05328 6.6787C8.79616 6.65164 8.53905 6.63811 8.28193 6.6291C8.08345 6.88163 7.81731 7.06653 7.51508 7.13417Z" fill="#231F20"/>
<path d="M7.23541 7.11613H6.82041V9.20858C7.03693 9.23112 7.27149 9.24465 7.51508 9.25367V7.83767C8.35861 7.99099 9.04877 8.81624 9.04877 9.74973C9.04877 10.6156 8.40372 11.2875 7.51508 11.4047V10.4532C7.276 10.4487 7.04595 10.4352 6.82041 10.4126V12.1173H7.23541C8.66535 12.1173 9.73893 11.0981 9.73893 9.74973C9.74344 8.32019 8.59318 7.11613 7.23541 7.11613Z" fill="#231F20"/>
<path d="M7.85339 9.51072C5.33183 9.51072 3.82971 8.71252 3.82971 7.94138C3.82971 7.32357 4.79955 6.68772 6.48661 6.46224V5.76326C4.46123 6.01579 3.13504 6.84105 3.13504 7.94138C3.13504 9.27171 5.07471 10.2052 7.84889 10.2052C8.13758 10.2052 8.43078 10.1962 8.71497 10.1736C8.76008 10.0383 8.79165 9.89854 8.79165 9.74522C8.79165 9.65503 8.77812 9.56483 8.76459 9.47464C8.46687 9.49719 8.16013 9.51072 7.85339 9.51072ZM12.4951 9.19505L12.1026 8.62684C11.6696 8.92447 10.8802 9.17701 9.95996 9.33485C9.97801 9.47013 9.99605 9.60993 9.99605 9.74973C9.99605 9.84443 9.99154 9.93913 9.97801 10.0338C11.0471 9.85345 11.9673 9.56032 12.4951 9.19505Z" fill="#231F20"/>
</svg>
