<?xml version="1.0" standalone="no"?>
<!DOCTYPE svg PUBLIC "-//W3C//DTD SVG 20010904//EN"
 "http://www.w3.org/TR/2001/REC-SVG-20010904/DTD/svg10.dtd">
<svg version="1.0" xmlns="http://www.w3.org/2000/svg"
 width="700.000000pt" height="700.000000pt" viewBox="0 0 700.000000 700.000000"
 preserveAspectRatio="xMidYMid meet">
<metadata>
Created by potrace 1.14, written by Peter Selinger 2001-2017
</metadata>
<g transform="translate(0.000000,700.000000) scale(0.100000,-0.100000)"
fill="#000000" stroke="none">
<path d="M1752 5254 c-958 -960 -1742 -1749 -1742 -1754 0 -6 786 -796 1746
-1755 l1745 -1746 1750 1751 1749 1750 -1733 1733 c-953 952 -1742 1739 -1753
1748 -18 16 -93 -58 -1762 -1727z m3342 -171 l1583 -1583 -1583 -1582 c-871
-871 -1587 -1584 -1591 -1585 -4 -2 -721 710 -1593 1582 l-1585 1585 1585
1585 c872 872 1588 1584 1592 1583 5 -2 721 -715 1592 -1585z"/>
<path d="M2989 5391 c-1 -3 -2 -549 -3 -1213 l-2 -1208 30 -1 c17 0 39 -2 49
-4 10 -2 65 -6 122 -9 l104 -6 0 307 c1 168 3 308 5 310 12 12 185 -55 255
-99 324 -203 485 -619 372 -957 -87 -261 -311 -446 -598 -495 l-33 -5 -1 57
c0 31 0 125 0 208 l0 151 -84 2 c-45 1 -92 3 -103 6 -10 2 -41 5 -68 6 l-49 3
-1 -372 0 -373 150 1 c216 2 354 29 518 101 157 69 288 170 398 308 88 111
165 282 195 433 16 78 15 293 -1 387 -51 301 -240 602 -476 761 -37 25 -67 50
-67 55 0 6 17 23 37 39 53 43 130 135 180 217 24 39 42 72 40 74 -5 5 -96 13
-223 20 l-110 6 -65 -66 c-62 -64 -179 -134 -250 -150 l-25 -6 2 488 c1 268 2
539 3 600 l0 113 58 -22 c165 -61 296 -194 358 -365 18 -48 32 -73 43 -74 9
-1 27 -2 41 -4 14 -1 72 -6 130 -10 58 -4 108 -9 113 -12 11 -7 8 30 -8 100
-83 358 -375 636 -728 693 -49 8 -307 12 -308 5z"/>
<path d="M3439 4511 c-11 -5 -14 -36 -14 -148 0 -78 3 -144 5 -146 3 -3 88 -8
190 -11 185 -7 218 -9 340 -21 156 -15 397 -48 495 -69 11 -2 56 -11 100 -20
242 -50 486 -132 650 -220 l85 -45 85 122 c66 95 82 124 72 134 -6 6 -59 36
-117 66 -223 116 -585 225 -937 282 -18 3 -48 8 -65 11 -18 3 -49 7 -68 9 -19
2 -66 8 -105 14 -38 5 -104 13 -145 17 -41 3 -91 8 -110 10 -19 2 -105 6 -190
9 -85 4 -178 8 -206 9 -28 1 -57 0 -65 -3z"/>
<path d="M2809 4476 c-2 -2 -26 -6 -54 -9 -27 -3 -75 -11 -105 -17 -30 -6 -71
-13 -90 -16 -73 -12 -308 -76 -404 -110 -233 -84 -449 -209 -568 -331 -84 -85
-97 -103 -141 -183 -135 -248 -82 -538 139 -752 33 -31 72 -67 89 -80 146
-115 391 -231 640 -303 104 -30 346 -81 430 -90 33 -4 62 -9 65 -10 3 -2 39
-6 80 -10 41 -4 84 -9 95 -11 125 -24 801 -22 826 3 27 27 44 219 25 279 -6
18 -12 20 -54 15 -74 -8 -606 -7 -717 2 -118 10 -169 15 -210 22 -16 3 -50 8
-75 11 -223 28 -500 107 -686 194 -237 111 -381 249 -412 395 -37 174 113 355
410 494 96 45 323 125 392 137 16 3 32 6 35 8 3 2 22 7 41 10 40 7 73 13 115
22 17 4 37 8 45 9 8 1 38 5 66 9 l51 7 -1 151 c-1 137 -7 172 -27 154z"/>
<path d="M5165 3156 c-175 -88 -484 -183 -741 -227 -42 -8 -70 -17 -68 -23 10
-31 14 -82 14 -184 1 -111 1 -112 23 -107 12 2 60 11 106 20 160 29 516 123
586 155 11 5 67 28 125 52 141 59 253 125 246 145 -10 26 -157 233 -164 232
-4 -1 -61 -29 -127 -63z"/>
</g>
</svg>
